<svg width="52" height="56" viewBox="0 0 52 56" fill="none" xmlns="http://www.w3.org/2000/svg">
<path d="M9.15527e-05 7.16906L25.6693 0L51.8672 7.16906L49.1264 15.8651L25.9317 9.3421L23.4376 9.98814L24.1423 11.9693L26.5581 17.2355L28.9739 21.9066L31.2096 26.096L26.5777 34.471L22.7211 28.5823L19.6436 23.0264L17.1338 17.6779L15.0665 12.3295L2.81917 15.6263L9.15527e-05 6.76578" fill="#1D4ED8"/>
<path d="M4.13855 18.9975L12.8777 16.6208L14.1463 19.761L16.6208 24.8353L18.8565 28.9425L22.7209 35.2267L26.6481 40.7826L30.3912 35.0427L32.6895 30.9981L35.4068 25.681L37.944 20.3678L39.4514 16.6208L48.03 19.0993L45.6142 25.0781L41.6871 33.2338L36.9769 41.4483L31.4797 49.4787L26.9496 55.34L20.2464 47.5484L16.0922 41.6284L12.5136 35.9824L9.73754 30.9355L6.05318 23.1439L4.13855 18.9975Z" fill="#1D4ED8"/>
</svg>
